<mxfile host="65bd71144e">
    <diagram id="odVh5WRETYRERjacGS7j" name="Page-1">
        <mxGraphModel dx="858" dy="499" grid="1" gridSize="10" guides="1" tooltips="1" connect="1" arrows="1" fold="1" page="1" pageScale="1" pageWidth="850" pageHeight="1100" math="0" shadow="0">
            <root>
                <mxCell id="0"/>
                <mxCell id="1" parent="0"/>
                <mxCell id="8" value="" style="rounded=0;whiteSpace=wrap;html=1;fillColor=none;dashed=1;" parent="1" vertex="1">
                    <mxGeometry x="161.25" y="290" width="162.5" height="190" as="geometry"/>
                </mxCell>
                <mxCell id="14" style="edgeStyle=orthogonalEdgeStyle;html=1;entryX=0.5;entryY=0;entryDx=0;entryDy=0;rounded=0;" edge="1" parent="1" source="2" target="10">
                    <mxGeometry relative="1" as="geometry">
                        <Array as="points">
                            <mxPoint x="350" y="345"/>
                            <mxPoint x="350" y="260"/>
                            <mxPoint x="461" y="260"/>
                        </Array>
                    </mxGeometry>
                </mxCell>
                <mxCell id="15" style="edgeStyle=orthogonalEdgeStyle;rounded=0;html=1;exitX=1;exitY=0.5;exitDx=0;exitDy=0;entryX=0.5;entryY=0;entryDx=0;entryDy=0;" edge="1" parent="1" source="2" target="12">
                    <mxGeometry relative="1" as="geometry">
                        <Array as="points">
                            <mxPoint x="350" y="345"/>
                            <mxPoint x="350" y="240"/>
                            <mxPoint x="681" y="240"/>
                        </Array>
                    </mxGeometry>
                </mxCell>
                <mxCell id="2" value="es01" style="rounded=0;whiteSpace=wrap;html=1;" parent="1" vertex="1">
                    <mxGeometry x="192.5" y="320" width="100" height="50" as="geometry"/>
                </mxCell>
                <mxCell id="3" value="es02" style="rounded=0;whiteSpace=wrap;html=1;" parent="1" vertex="1">
                    <mxGeometry x="411.25" y="320" width="100" height="50" as="geometry"/>
                </mxCell>
                <mxCell id="4" value="es03" style="rounded=0;whiteSpace=wrap;html=1;" parent="1" vertex="1">
                    <mxGeometry x="631.25" y="320" width="100" height="50" as="geometry"/>
                </mxCell>
                <mxCell id="5" value="kib01" style="rounded=0;whiteSpace=wrap;html=1;" parent="1" vertex="1">
                    <mxGeometry x="192.5" y="400" width="100" height="50" as="geometry"/>
                </mxCell>
                <mxCell id="6" value="kib02" style="rounded=0;whiteSpace=wrap;html=1;" parent="1" vertex="1">
                    <mxGeometry x="411.25" y="400" width="100" height="50" as="geometry"/>
                </mxCell>
                <mxCell id="7" value="kib02" style="rounded=0;whiteSpace=wrap;html=1;" parent="1" vertex="1">
                    <mxGeometry x="631.25" y="400" width="100" height="50" as="geometry"/>
                </mxCell>
                <mxCell id="9" value="cluster01net" style="text;html=1;strokeColor=none;fillColor=none;align=center;verticalAlign=middle;whiteSpace=wrap;rounded=0;dashed=1;" parent="1" vertex="1">
                    <mxGeometry x="205" y="480" width="75" height="20" as="geometry"/>
                </mxCell>
                <mxCell id="10" value="" style="rounded=0;whiteSpace=wrap;html=1;fillColor=none;dashed=1;" vertex="1" parent="1">
                    <mxGeometry x="380" y="290" width="162.5" height="190" as="geometry"/>
                </mxCell>
                <mxCell id="12" value="" style="rounded=0;whiteSpace=wrap;html=1;fillColor=none;dashed=1;" vertex="1" parent="1">
                    <mxGeometry x="600" y="290" width="162.5" height="190" as="geometry"/>
                </mxCell>
                <mxCell id="11" value="cluster02net" style="text;html=1;strokeColor=none;fillColor=none;align=center;verticalAlign=middle;whiteSpace=wrap;rounded=0;dashed=1;" vertex="1" parent="1">
                    <mxGeometry x="423.75" y="480" width="75" height="20" as="geometry"/>
                </mxCell>
                <mxCell id="13" value="cluster03net" style="text;html=1;strokeColor=none;fillColor=none;align=center;verticalAlign=middle;whiteSpace=wrap;rounded=0;dashed=1;" vertex="1" parent="1">
                    <mxGeometry x="643.75" y="480" width="75" height="20" as="geometry"/>
                </mxCell>
            </root>
        </mxGraphModel>
    </diagram>
</mxfile>